<?xml version="1.0" standalone="no"?>
<!DOCTYPE svg PUBLIC "-//W3C//DTD SVG 20010904//EN"
 "http://www.w3.org/TR/2001/REC-SVG-20010904/DTD/svg10.dtd">
<svg version="1.0" xmlns="http://www.w3.org/2000/svg"
 width="512.000000pt" height="512.000000pt" viewBox="0 0 512.000000 512.000000"
 preserveAspectRatio="xMidYMid meet">

<g transform="translate(0.000000,512.000000) scale(0.100000,-0.100000)"
fill="#000000" stroke="none">
<path d="M1374 5105 c-161 -35 -286 -149 -335 -306 -18 -59 -19 -129 -19
-2239 0 -2110 1 -2180 19 -2239 36 -115 119 -214 225 -268 105 -53 91 -53
1311 -53 984 0 1138 2 1190 15 152 40 268 150 321 305 18 53 19 125 19 2240 0
2115 -1 2187 -19 2240 -53 156 -168 265 -321 305 -52 13 -205 15 -1195 14
-903 0 -1147 -3 -1196 -14z m2346 -304 c19 -10 45 -33 58 -51 l22 -33 0 -1847
0 -1847 -23 -33 c-49 -74 46 -68 -1217 -72 l-1135 -3 -37 23 c-21 13 -45 40
-57 66 l-21 43 2 1836 3 1836 21 28 c11 15 36 38 54 51 l33 22 1131 0 c1082 0
1133 -1 1166 -19z"/>
<path d="M2560 2545 l0 -445 355 0 c393 0 399 1 431 62 36 69 -1 290 -73 436
-45 92 -85 145 -193 257 -48 50 -92 100 -99 113 -12 22 -14 22 -216 22 l-205
0 0 -445z"/>
</g>
</svg>
